<?xml version="1.0" encoding="UTF-8" standalone="no"?>
<!-- Created with Inkscape (http://www.inkscape.org/) -->

<svg
   xmlns:dc="http://purl.org/dc/elements/1.1/"
   xmlns:cc="http://creativecommons.org/ns#"
   xmlns:rdf="http://www.w3.org/1999/02/22-rdf-syntax-ns#"
   xmlns:svg="http://www.w3.org/2000/svg"
   xmlns="http://www.w3.org/2000/svg"
   xmlns:sodipodi="http://sodipodi.sourceforge.net/DTD/sodipodi-0.dtd"
   xmlns:inkscape="http://www.inkscape.org/namespaces/inkscape"
   width="744.09448819"
   height="1052.3622047"
   id="svg3215"
   version="1.1"
   inkscape:version="0.48.3.1 r9886"
   sodipodi:docname="New document 10">
  <defs
     id="defs3217" />
  <sodipodi:namedview
     id="base"
     pagecolor="#ffffff"
     bordercolor="#666666"
     borderopacity="1.0"
     inkscape:pageopacity="0.0"
     inkscape:pageshadow="2"
     inkscape:zoom="0.35"
     inkscape:cx="375"
     inkscape:cy="520"
     inkscape:document-units="px"
     inkscape:current-layer="layer1"
     showgrid="false"
     inkscape:window-width="1920"
     inkscape:window-height="1025"
     inkscape:window-x="-2"
     inkscape:window-y="-3"
     inkscape:window-maximized="1" />
  <metadata
     id="metadata3220">
    <rdf:RDF>
      <cc:Work
         rdf:about="">
        <dc:format>image/svg+xml</dc:format>
        <dc:type
           rdf:resource="http://purl.org/dc/dcmitype/StillImage" />
        <dc:title></dc:title>
      </cc:Work>
    </rdf:RDF>
  </metadata>
  <g
     inkscape:label="Layer 1"
     inkscape:groupmode="layer"
     id="layer1">
    <path
       style="fill:#000000"
       d="m 532.46679,1021.5827 c -39.7364,10.8006 -26.1305,-42.03492 -27.8691,-62.77154 3.7438,-14.03802 -8.9153,-35.1411 -20.7225,-49.74436 6.7266,-31.36419 -28.1753,-23.48813 -15.7137,-55.66104 -5.3847,-17.70537 10.2933,-31.95532 -0.5783,-48.2849 -8.6606,-16.62553 -3.6891,-36.59102 -17.3506,-51.3912 -11.0809,-17.33848 -23.0774,-34.95262 -28.4799,-54.8117 -12.0819,-17.18344 -17.9332,-35.56459 -28.1985,-54.0493 -6.0695,-13.45196 -16.8176,-25.4322 -18.5073,-39.7313 -9.9203,-17.31797 -28.7901,-46.77457 -28.8716,-7.3626 -8.8416,26.90066 -7.8947,55.98857 -15.6483,83.31269 4.344,20.44388 -15.4206,34.31663 -18.5204,53.50161 -5.5118,20.47714 -1.6487,44.39548 -3.4701,66.1871 -4.3387,22.61179 22.6593,26.16929 20.2637,50.07594 16.6129,27.41695 -32.9516,6.05043 -31.2524,30.89386 -1.4222,22.53241 -5.8727,40.94365 -20.1321,56.17291 7.1623,18.00249 14.6106,43.51916 -0.3994,59.11708 -13.9299,21.74285 -35.8802,-3.54678 -50.987,9.40955 -18.9892,0.1248 -56.6097,13.5598 -64.4031,-5.3367 7.6028,-13.61116 28.8396,-13.43182 39.7353,-25.47054 17.1925,-10.17454 26.2445,-28.34753 25.9166,-47.046 -3.3097,-14.19798 -5.8065,-26.9725 3.2148,-43.6962 15.4442,-21.40819 -24.6063,-19.87066 -9.0566,-37.1284 19.9114,-3.78937 6.1196,-33.54228 -1.8944,-51.6179 -6.609,-25.68398 -17.336,-49.35224 -23.784,-74.6738 -4.6715,-18.1673 -11.2946,-36.77754 -16.7292,-54.345 -7.1406,-25.35804 -17.6164,-50.43161 -22.5987,-76.5856 -5.5425,-18.4031 -12.9825,-36.10737 -18.7187,-54.365 -16.7194,-2.27843 -26.8848,-10.81539 -38.484004,-22.2666 -13.7309,-12.40559 -11.266,-36.09209 -0.1689,-50.2409 21.683804,-3.96663 -0.1035,-43.98124 22.670504,-32.4001 21.2028,19.42204 24.6471,-22.58344 31.8093,-39.102 9.9844,-12.80029 3.5692,-47.94003 28.3438,-39.1833 19.1311,-1.13421 30.2273,-31.02636 46.2636,-43.0454 7.192,-15.48077 18.6498,-28.83327 30.1188,-40.9877 12.6524,-13.47511 5.8789,-32.56626 14.9926,-47.9337 5.3223,-21.01754 28.1777,-17.37146 43.216,-24.2735 14.9585,-11.25396 -8.8176,-27.81337 -0.9963,-41.9898 0.9888,-16.79742 8.0107,-33.39284 -0.5784,-48.61561 5.9738,-23.577666 -23.2779,-31.134106 -35.9257,-45.524586 -8.64,-12.62927 -29.1542,-29.52464 -27.1146,-41.7724 20.0488,0.97098 33.9803,19.30786 46.7889,32.93332 25.5179,13.506 28.119,-14.46961 33.3552,-30.04202 17.3469,-2.41496 36.023,-0.86349 53.008,5.2047 18.0457,1.56895 29.5644,10.97489 29.6346,25.448 16.433,-6.01624 27.1312,-12.98499 35.0096,1.2241 19.1591,5.20935 36.9247,16.6874 43.9547,35.9787 23.2204,21.719686 -23.8289,-2.27125 -19.3748,14.845786 8.7171,16.26479 6.4094,47.57071 -19.6615,35.27951 -17.4168,-6.58812 -13.5753,16.8794 -4.916,24.143 3.0579,19.70605 9.531,27.476 25.9514,31.96516 16.1746,2.1502 32.7529,9.24803 33.0256,29.18084 -0.3809,18.9637 4.6948,36.67337 13.4043,53.5832 6.9403,22.26695 14.9739,44.53958 27.4359,64.59664 3.9081,16.7893 16.4988,30.41357 21.6366,47.00766 27.52,12.9378 7.6458,49.85621 17.3482,72.8221 -4.5241,16.26773 3e-4,36.85413 10.9889,50.8949 5.9561,19.30409 12.053,36.41245 4.0484,56.3972 -8.5506,13.17277 -35.0198,49.2019 -32.2376,20.16839 -25.5802,2.66207 14.4181,-17.21047 -3.4756,-31.90859 -3.5447,-27.93535 -18.507,-10.39511 -18.1645,9.5086 -15.8145,5.86815 -6.1394,-40.38546 -1.3367,-57.90591 9.8201,-18.74607 4.5718,-42.73978 -15.1977,-52.35979 -13.9675,-12.61353 -17.3496,-30.31742 -16.7286,-48.15676 -9.7334,-13.23906 -19.8216,-25.44881 -23.7867,-41.48774 -13.0163,-9.72119 -7.8257,-34.11969 -23.8241,-38.3919 -8.5269,17.84166 -32.8293,30.23465 -31.3367,47.4553 -6.3585,16.67134 -8.0374,38.59205 2.1034,52.856 2.8767,17.24414 12.0242,32.78917 13.3278,51.0699 8.6762,24.48791 19.2541,49.50674 19.9495,75.5533 -9.7074,20.64784 9.4808,42.10351 6.3619,64.4051 10.3686,16.83716 2.1335,38.94571 16.1594,54.75059 -1.9977,16.17346 3.6113,34.36361 12.7077,49.40271 7.7644,17.66213 19.0412,33.19824 24.3412,51.7636 0.8358,20.94998 24.3799,17.84417 28.0218,37.2428 6.5963,13.96352 17.3942,30.7704 12.1818,45.7223 -26.9491,1.87847 -7.155,26.86883 -7.2376,42.5672 7.5066,15.77384 6.1251,31.29482 -7.3967,44.03698 5.8537,18.80388 9.6589,38.06924 24.1247,52.94707 10.6616,28.67409 -27.3619,21.74259 -45.3208,22.72269 l -4.2649,-0.6892 -2e-4,0 z M 240.62139,813.65902 c 1.0898,-19.80074 8.2256,-41.74078 10.0456,-62.13206 2.0943,-19.01052 6.7703,-37.37448 5.2396,-56.8792 -5.8115,-28.09982 -8.3809,-56.33094 -6.2094,-85.39119 -1.6117,-15.68583 11.529,-40.2364 -4.4512,-51.38901 -10.0396,-14.42995 6.155,-37.30773 4.7325,-55.5262 9.7346,-32.45939 14.3575,-66.48322 24.3118,-98.4995 0.2072,-20.63383 1.9866,-40.51621 9.5059,-58.78638 -17.4281,2.07274 -22.8674,29.85112 -40.2378,38.19408 -26.0286,10.84483 8.5185,27.54729 -22.3084,35.8136 -13.4504,9.10675 -26.9905,19.46634 -33.2997,34.7011 -21.5811,-8.27169 -19.4945,12.24514 -20.5315,26.315 9.3834,17.6654 -22.265,27.40926 -10.3553,37.7375 -0.093,10.47469 -10.7531,17.422 -0.6334,33.3034 1.6332,20.64487 13.206,39.2272 17.303,59.7918 9.112,29.64772 18.6857,59.33017 26.4404,89.1337 10.4475,28.97492 19.4234,58.88791 28.5506,88.145 6.539,7.58975 3.4873,22.90779 11.8973,25.46836 z m -124.365,-292.87486 c -3.2046,-6.73842 -30.451204,-34.64712 -19.975004,-14.0973 7.521804,3.95471 8.602604,18.68056 19.975004,14.0973 z"
       id="path3101-5"
       inkscape:connector-curvature="0"
       sodipodi:nodetypes="cccccccccccccccccccccccccccccccccccccccccccccccccccccccccccccccccccccccccccccccccccccccccccccccccccccccc" />
  </g>
</svg>
