<?xml version="1.0" encoding="UTF-8" standalone="no"?>
<!-- Created with Inkscape (http://www.inkscape.org/) -->
<svg xmlns:dc="http://purl.org/dc/elements/1.1/" xmlns:cc="http://creativecommons.org/ns#" xmlns:rdf="http://www.w3.org/1999/02/22-rdf-syntax-ns#" xmlns:svg="http://www.w3.org/2000/svg" xmlns="http://www.w3.org/2000/svg" xmlns:sodipodi="http://sodipodi.sourceforge.net/DTD/sodipodi-0.dtd" xmlns:inkscape="http://www.inkscape.org/namespaces/inkscape" id="svg2" version="1.1" inkscape:version="0.48.0 r9654" width="575" height="472" sodipodi:docname="Pferd_2.jpg">
  <defs id="defs6"/>
  <sodipodi:namedview pagecolor="#ffffff" bordercolor="#666666" borderopacity="1" objecttolerance="10" gridtolerance="10" guidetolerance="10" inkscape:pageopacity="0" inkscape:pageshadow="2" inkscape:window-width="1280" inkscape:window-height="975" id="namedview4" showgrid="false" inkscape:zoom="1.0932203" inkscape:cx="199.77252" inkscape:cy="222.96663" inkscape:window-x="-4" inkscape:window-y="-4" inkscape:window-maximized="1" inkscape:current-layer="svg2"/>
  <path style="fill:#000000" d="m 413.80308,449.85496 c 6.83446,-1.95262 7.24037,-4.37529 1.62739,-9.71301 -2.17373,-2.06713 -6.78049,-5.73496 -10.23726,-8.15075 -4.28101,-2.99181 -6.92075,-5.63574 -8.27876,-8.29188 -7.09264,-13.87258 -7.04914,-37.66643 0.10829,-59.23068 3.14673,-9.48062 6.55106,-27.09371 6.55106,-33.89347 0,-1.3213 2.87491,-11.07925 6.38869,-21.68433 3.51377,-10.60508 7.7671,-24.72209 9.45183,-31.37112 l 3.06315,-12.08916 6.21232,-6.50954 c 7.17423,-7.51748 9.23525,-12.10089 11.49953,-25.57321 1.38496,-8.24044 1.90708,-13.3937 4.27589,-42.20278 0.83774,-10.18852 1.23236,-11.7472 5.06181,-19.99361 2.96214,-6.37874 4.70596,-11.87725 6.08057,-19.17292 2.24759,-11.92885 10.5715,-41.15068 13.17629,-46.25647 l 1.79443,-3.51738 2.85332,1.47552 c 1.56934,0.81154 8.35842,3.35978 15.08685,5.66278 15.85837,5.42798 19.4451,7.46291 27.33556,15.50881 5.51444,5.62307 6.85536,7.63999 8.55564,12.86881 1.77859,5.4696 4.72159,8.74756 7.12061,9.87536 0.89905,0.22556 2.12939,0.28161 3.4442,-0.7526 1.89409,-1.4899 3.17241,-1.75539 6.15539,-1.2784 4.43401,0.70903 7.92231,-1.11555 9.61142,-5.02732 0.59566,-1.37947 2.30284,-3.94234 3.79373,-5.69527 2.7773,-3.26545 5.26784,-8.28455 5.26784,-10.6161 0,-0.71986 -3.40696,-6.90576 -7.57103,-13.74641 -11.32321,-18.601602 -19.03932,-34.604622 -21.78518,-45.18195 -3.1063,-11.965828 -4.07143,-13.607083 -12.13502,-20.636352 -7.5757,-6.603961 -8.54472,-8.310209 -6.49693,-11.439829 3.07549,-4.700257 5.5198,-19.393226 3.44006,-20.678574 -0.46263,-0.285925 -2.08688,1.677114 -3.60945,4.362309 -3.21221,5.665058 -8.19334,11.611868 -9.02754,10.777672 -0.31631,-0.316312 0.0761,-3.088015 0.87191,-6.159341 1.68407,-6.499016 1.80816,-8.57054 0.5134,-8.57054 -0.51349,0 -4.16472,3.220621 -8.11382,7.156934 l -7.18021,7.156935 -11.637,0.733515 c -20.35085,1.282774 -32.57239,4.897553 -48.47612,14.337841 -19.11213,11.344759 -27.79582,19.600781 -46.85208,44.544608 -20.63783,27.014042 -21.73632,28.128022 -33.39436,33.865052 -15.55568,7.65511 -36.92772,11.84103 -65.38278,12.80589 -23.10948,0.78359 -41.25524,-1.57691 -72.81939,-9.47277 -20.73007,-5.18569 -29.48066,-6.40991 -45.56677,-6.37493 -17.57837,0.0382 -30.69427,1.8081 -45.02225,6.07535 -7.75994,2.31113 -11.97431,2.9343 -24.413118,3.6099 -18.049759,0.98035 -26.435819,2.60157 -35.149682,6.79521 -19.879219,9.56715 -28.951478,28.27534 -33.205001,68.4732 -0.858051,8.10924 -1.213472,25.68393 -1.175345,58.12093 0.05952,50.4245 1.037808,69.06061 3.982354,75.84113 l 1.794867,4.13328 1.033623,-2.61786 c 0.568562,-1.43982 1.949636,-17.35847 2.029425,-18.22024 0.07997,-0.86176 -0.419801,17.40196 -0.07049,23.43153 0.34919,6.02956 1.088582,11.41654 1.643102,11.97106 1.01521,1.01525 2.467982,-7.35734 4.659095,-16.71993 0.724233,-3.09482 0.03599,2.68511 0.115935,11.23456 0.112708,12.0545 3.000732,14.85923 7.151869,11.36626 1.950446,-1.64117 2.644772,-19.48269 3.334505,-18.79289 1.66291,1.66291 -2.325591,21.54014 -1.168473,17.6779 0.612921,-2.04586 4.619499,-5.84634 5.264688,-5.84634 1.623945,0 3.363667,-5.70679 8.699913,-28.5377 2.532957,-10.83683 5.331131,-21.92631 6.218289,-24.64328 1.406341,-4.30738 1.754973,-12.44202 2.722292,-63.52585 1.219609,-64.40538 0.886042,-60.97503 7.596452,-78.11454 3.736944,-9.54455 6.983626,-14.41399 9.610413,-14.41399 2.193438,0 2.520124,4.13553 0.55294,7.00007 -2.865688,4.17289 -6.987997,12.44291 -9.026507,18.10817 -1.848897,5.13866 -2.171212,7.78672 -2.150568,17.66877 0.03255,15.73384 1.979181,25.21593 10.259415,49.9815 8.547869,25.56585 9.331897,31.71397 5.544365,43.47696 -2.750655,8.54256 -7.202532,15.69209 -15.864783,25.47836 -3.349254,3.78381 -6.541442,8.38699 -7.093637,10.22928 -0.558519,1.86297 -1.351475,17.7952 -1.786591,35.89735 l -0.782447,32.54772 -3.333817,14.34397 c -4.126029,17.75273 -4.207677,20.04061 -0.776403,21.76911 1.406527,0.70855 3.808456,1.58942 5.337734,1.95747 3.743174,0.90089 4.210652,1.95004 3.575786,8.02425 -0.460597,4.40645 -0.21993,5.68257 1.592885,8.44816 4.254731,6.49066 13.316669,9.76515 22.73877,8.21659 6.508895,-1.06979 7.904445,-1.76873 7.904445,-3.95895 0,-4.44348 -10.82844,-19.37171 -17.722327,-24.43231 -3.455731,-2.53673 -4.467872,-3.91117 -4.927353,-6.69124 -1.14196,-6.90952 -0.629194,-37.02403 0.766173,-44.99151 3.161779,-18.05365 11.709276,-35.85819 26.070447,-54.3053 5.76811,-7.40916 17.08356,-18.30979 19.60331,-18.88459 1.83532,-0.41871 1.671,1.38093 -1.10951,12.14816 -3.1854,12.33486 -2.81863,14.9003 4.05554,28.37108 3.06702,6.01031 6.03398,12.39249 6.59324,14.18262 0.55917,1.79012 2.10398,12.02462 3.43285,22.74333 2.7408,22.10688 5.40488,36.16844 7.44134,39.27648 0.76469,1.16697 3.04405,2.96547 5.06527,3.99664 4.18508,2.13508 4.67645,2.88731 8.00618,12.25761 3.44476,9.69393 3.99779,10.10457 14.4218,10.70888 8.01446,0.46464 8.95528,0.33736 11.29973,-1.52854 1.40653,-1.11946 2.55733,-2.69011 2.55733,-3.49033 0,-2.14946 -9.49789,-13.11974 -15.58423,-18.00011 -4.68473,-3.75647 -5.57961,-5.04336 -7.75984,-11.15922 -1.35547,-3.8022 -4.40975,-11.48366 -6.78722,-17.06991 -7.90352,-18.57077 -8.32645,-30.72445 -2.28355,-65.63288 4.72221,-27.27906 15.52732,-55.59594 24.7624,-71.92391 1.8752,-3.31543 4.5186,-6.27943 9.26632,-8.86069 4.24172,-0.12971 7.95391,1.88534 12.5155,3.48446 41.13699,22.02169 47.22529,23.3207 123.03598,26.25118 15.34392,0.59313 28.24224,1.3882 28.66293,1.76682 1.43048,1.28746 2.33886,28.64567 1.53417,46.20573 -1.24528,27.17502 -3.56847,56.64039 -6.06481,76.92095 -2.89567,23.5247 -2.96842,29.03404 -0.39418,29.85107 3.08469,0.97904 5.01008,5.02162 5.63409,11.82938 0.32288,3.52266 1.08698,6.90355 1.69799,7.51308 1.92674,1.92209 18.39396,1.31933 23.28065,-0.85215 l 4.13435,-1.83717 -5.87745,-6.21434 c -12.47763,-13.19277 -13.5582,-16.18313 -13.5198,-37.41478 0.024,-13.25013 0.31495,-15.99877 2.65815,-25.10824 2.47453,-9.62012 5.99108,-18.43259 6.12287,-15.34393 0.0327,0.7672 0.45059,4.11496 0.92855,7.43948 0.47797,3.32452 1.32752,17.76176 1.8879,32.08276 1.04483,26.70142 1.84684,33.01269 4.19515,33.01269 2.00325,0 3.97351,3.59323 5.1057,9.31146 0.55566,2.80639 1.1977,6.00227 1.42674,7.10196 0.25286,1.21396 1.56914,2.40126 3.35064,3.02228 3.56958,1.24437 14.93159,1.20057 19.39547,-0.0748 z" id="path2987" inkscape:connector-curvature="0" sodipodi:nodetypes="cssssssscsssssscsssscssssssssssssssscsssssssssssscccccccsscssscssssccssscscsssscsssssscsscscssscssssssccscsssssscsssssssscssc"/>
  <metadata>
    <rdf:RDF>
      <cc:Work>
        <dc:format>image/svg+xml</dc:format>
        <dc:type rdf:resource="http://purl.org/dc/dcmitype/StillImage"/>
        <cc:license rdf:resource="http://creativecommons.org/licenses/publicdomain/"/>
        <dc:publisher>
          <cc:Agent rdf:about="http://openclipart.org/">
            <dc:title>Open Clip Art Library</dc:title>
          </cc:Agent>
        </dc:publisher>
        <dc:title>horse</dc:title>
        <dc:date>2011-08-27T22:48:25</dc:date>
        <dc:description/>
        <dc:source>http://openclipart.org/detail/158377/horse-by-marauder</dc:source>
        <dc:creator>
          <cc:Agent>
            <dc:title>marauder</dc:title>
          </cc:Agent>
        </dc:creator>
        <dc:subject>
          <rdf:Bag>
            <rdf:li>animal</rdf:li>
            <rdf:li>clip art</rdf:li>
            <rdf:li>clipart</rdf:li>
            <rdf:li>holsteiner</rdf:li>
            <rdf:li>horse</rdf:li>
            <rdf:li>reiten</rdf:li>
            <rdf:li>riding</rdf:li>
            <rdf:li>silhouette</rdf:li>
            <rdf:li>stute</rdf:li>
          </rdf:Bag>
        </dc:subject>
      </cc:Work>
      <cc:License rdf:about="http://creativecommons.org/licenses/publicdomain/">
        <cc:permits rdf:resource="http://creativecommons.org/ns#Reproduction"/>
        <cc:permits rdf:resource="http://creativecommons.org/ns#Distribution"/>
        <cc:permits rdf:resource="http://creativecommons.org/ns#DerivativeWorks"/>
      </cc:License>
    </rdf:RDF>
  </metadata>
</svg>